<svg width="657.9px" height="122px" xmlns="http://www.w3.org/2000/svg" viewBox="-78.94687499999998 14 657.89375 122" style="background: rgba(0, 0, 0, 0)" preserveAspectRatio="xMidYMid"><defs><linearGradient id="editing-gradient-gradient" x1="0" x2="1" y1="0.5" y2="0.5" gradientUnits="objectBoundingBox"><stop offset="0" stop-color="rgba(0%, 9%, 100%, 0.37)"></stop><stop offset="1" stop-color="#ff00ff"></stop></linearGradient></defs><g transform="rotate(0,249.4,87.9)"><g transform="matrix(1.4,0,0,1.4,-60.9,153.6)"><path d="M 3.3 -38.7 L -10.6 -38.7 L -2.5 -80.9 L 11.6 -80.9 L 3.3 -38.7 Z M 59.1 -37.4 L 59.1 -37.4 L 59.1 -37.4 Q 51.3 -37.4 51.3 -43.4 L 51.3 -43.4 L 51.3 -43.4 Q 51.3 -46.1 52.4 -51.2 L 52.4 -51.2 L 52.4 -51.2 Q 53.6 -56.2 53.9 -58.3 L 53.9 -58.3 L 53.9 -58.3 Q 54.8 -63 54.8 -64.4 L 54.8 -64.4 L 54.8 -64.4 Q 54.8 -67.7 52.4 -67.7 L 52.4 -67.7 L 52.4 -67.7 Q 50.8 -67.7 49.3 -65.5 L 49.3 -65.5 L 49.3 -65.5 Q 47.7 -63.3 47 -58.9 L 47 -58.9 L 43.1 -38.7 L 30.6 -37.4 L 34 -54.8 L 34 -54.8 Q 34.6 -57.7 35.1 -61 L 35.1 -61 L 35.1 -61 Q 35.6 -64.2 35.6 -64.8 L 35.6 -64.8 L 35.6 -64.8 Q 35.6 -67.7 33.5 -67.7 L 33.5 -67.7 L 33.5 -67.7 Q 32 -67.7 30.4 -65.5 L 30.4 -65.5 L 30.4 -65.5 Q 28.8 -63.3 27.9 -58.9 L 27.9 -58.9 L 24 -38.7 L 11.4 -37.4 L 18.1 -71.3 L 28.5 -72.6 L 27.4 -66.2 L 27.4 -66.2 Q 29.1 -69.6 32.2 -71.1 L 32.2 -71.1 L 32.2 -71.1 Q 35.2 -72.6 40 -72.6 L 40 -72.6 L 40 -72.6 Q 42.8 -72.6 44.6 -71.3 L 44.6 -71.3 L 44.6 -71.3 Q 46.4 -69.9 47 -67.8 L 47 -67.8 L 47 -67.8 Q 48 -70 50.8 -71.3 L 50.8 -71.3 L 50.8 -71.3 Q 53.6 -72.6 57 -72.6 L 57 -72.6 L 57 -72.6 Q 60.5 -72.6 62.2 -71.9 L 62.2 -71.9 L 62.2 -71.9 Q 63.9 -71.2 64.9 -69.9 L 64.9 -69.9 L 64.9 -69.9 Q 66.6 -67.7 66.6 -63.6 L 66.6 -63.6 L 66.6 -63.6 Q 66.6 -59.6 64.9 -51.2 L 64.9 -51.2 L 64.9 -51.2 Q 64 -47.1 64 -45.6 L 64 -45.6 L 64 -45.6 Q 64 -44.1 64.8 -43.2 L 64.8 -43.2 L 64.8 -43.2 Q 65.7 -42.3 67 -42.2 L 67 -42.2 L 67 -42.2 Q 66.4 -40 64.1 -38.7 L 64.1 -38.7 L 64.1 -38.7 Q 61.9 -37.4 59.1 -37.4 Z M 74.7 -40.6 L 74.7 -40.6 L 74.7 -40.6 Q 73.2 -42.3 72.5 -44.9 L 72.5 -44.9 L 72.5 -44.9 Q 71.9 -47.5 71.9 -51.8 L 71.9 -51.8 L 71.9 -51.8 Q 71.9 -56.1 73.3 -60 L 73.3 -60 L 73.3 -60 Q 74.8 -63.9 77.5 -66.7 L 77.5 -66.7 L 77.5 -66.7 Q 83 -72.6 92.1 -72.6 L 92.1 -72.6 L 92.1 -72.6 Q 95.3 -72.6 97.7 -71.5 L 97.7 -71.5 L 108.7 -72.6 L 103.9 -47.7 L 103.9 -47.7 Q 103.7 -46.9 103.7 -45.5 L 103.7 -45.5 L 103.7 -45.5 Q 103.7 -44.1 104.6 -43.2 L 104.6 -43.2 L 104.6 -43.2 Q 105.5 -42.3 106.7 -42.2 L 106.7 -42.2 L 106.7 -42.2 Q 106.1 -40 103.8 -38.7 L 103.8 -38.7 L 103.8 -38.7 Q 101.4 -37.4 98.8 -37.4 L 98.8 -37.4 L 98.8 -37.4 Q 96.2 -37.4 94.4 -38.4 L 94.4 -38.4 L 94.4 -38.4 Q 92.7 -39.4 92.1 -41.1 L 92.1 -41.1 L 92.1 -41.1 Q 91.1 -39.5 88.9 -38.4 L 88.9 -38.4 L 88.9 -38.4 Q 86.8 -37.4 83.9 -37.4 L 83.9 -37.4 L 83.9 -37.4 Q 80.9 -37.4 78.6 -38.2 L 78.6 -38.2 L 78.6 -38.2 Q 76.2 -39 74.7 -40.6 Z M 88.2 -66.6 L 88.2 -66.6 L 88.2 -66.6 Q 87.5 -65.5 86.8 -63.5 L 86.8 -63.5 L 86.8 -63.5 Q 86.2 -61.6 85.1 -56.3 L 85.1 -56.3 L 85.1 -56.3 Q 84.1 -51.1 84.1 -47.4 L 84.1 -47.4 L 84.1 -47.4 Q 84.1 -43.7 84.7 -42.6 L 84.7 -42.6 L 84.7 -42.6 Q 85.2 -41.5 86.3 -41.5 L 86.3 -41.5 L 86.3 -41.5 Q 88.3 -41.5 89.8 -43.5 L 89.8 -43.5 L 89.8 -43.5 Q 91.3 -45.4 91.9 -48.9 L 91.9 -48.9 L 95.3 -67.6 L 95.3 -67.6 Q 93.9 -68.8 92.4 -68.8 L 92.4 -68.8 L 92.4 -68.8 Q 90.8 -68.8 89.9 -68.3 L 89.9 -68.3 L 89.9 -68.3 Q 88.9 -67.8 88.2 -66.6 Z M 116.4 -65.5 L 116.4 -65.5 L 116.4 -65.5 Q 118.6 -68.5 121.9 -70.6 L 121.9 -70.6 L 121.9 -70.6 Q 125.2 -72.6 129.2 -72.6 L 129.2 -72.6 L 129.2 -72.6 Q 133.2 -72.6 135.2 -71.3 L 135.2 -71.3 L 147.7 -72.6 L 143.3 -48 L 143.3 -48 Q 141.1 -35.5 136.4 -30.6 L 136.4 -30.6 L 136.4 -30.6 Q 131.8 -25.9 123 -25.9 L 123 -25.9 L 123 -25.9 Q 116.3 -25.9 112.4 -28 L 112.4 -28 L 112.4 -28 Q 108.6 -30.1 108.6 -33.6 L 108.6 -33.6 L 108.6 -33.6 Q 108.6 -36.3 110.6 -37.8 L 110.6 -37.8 L 110.6 -37.8 Q 112.6 -39.3 115.6 -39.3 L 115.6 -39.3 L 115.6 -39.3 Q 118.3 -39.3 120.4 -38.1 L 120.4 -38.1 L 120.4 -38.1 Q 121.6 -37.4 122.2 -36.5 L 122.2 -36.5 L 122.2 -36.5 Q 120.7 -35.2 120.7 -33.1 L 120.7 -33.1 L 120.7 -33.1 Q 120.7 -30.4 123.2 -30.4 L 123.2 -30.4 L 123.2 -30.4 Q 127.5 -30.4 130 -40.5 L 130 -40.5 L 130 -40.5 Q 130.7 -43.2 131.2 -46 L 131.2 -46 L 131.2 -46 Q 128.4 -42.5 121.8 -42.5 L 121.8 -42.5 L 121.8 -42.5 Q 117.3 -42.5 114.7 -44.7 L 114.7 -44.7 L 114.7 -44.7 Q 112 -46.8 112 -52 L 112 -52 L 112 -52 Q 112 -55.2 113.1 -58.8 L 113.1 -58.8 L 113.1 -58.8 Q 114.2 -62.4 116.4 -65.5 Z M 124.7 -51.8 L 124.7 -51.8 L 124.7 -51.8 Q 124.7 -47.4 127 -47.4 L 127 -47.4 L 127 -47.4 Q 128.5 -47.4 130 -49.1 L 130 -49.1 L 130 -49.1 Q 131.1 -50.4 131.6 -52.4 L 131.6 -52.4 L 134.8 -68.8 L 134.8 -68.8 Q 134.5 -68.9 134.2 -69 L 134.2 -69 L 134.2 -69 Q 133.6 -69.3 132.7 -69.3 L 132.7 -69.3 L 132.7 -69.3 Q 128.8 -69.3 126.5 -62.9 L 126.5 -62.9 L 126.5 -62.9 Q 124.7 -57.9 124.7 -51.8 Z M 176.1 -49.5 L 176.1 -49.5 L 176.1 -49.5 Q 177.7 -48.4 177.7 -46 L 177.7 -46 L 177.7 -46 Q 177.7 -43.6 176.5 -42.1 L 176.5 -42.1 L 176.5 -42.1 Q 175.3 -40.6 173.3 -39.5 L 173.3 -39.5 L 173.3 -39.5 Q 169.2 -37.4 164.8 -37.4 L 164.8 -37.4 L 164.8 -37.4 Q 160.4 -37.4 157.8 -38.4 L 157.8 -38.4 L 157.8 -38.4 Q 155.2 -39.3 153.5 -41.1 L 153.5 -41.1 L 153.5 -41.1 Q 150.1 -44.5 150.1 -50.7 L 150.1 -50.7 L 150.1 -50.7 Q 150.1 -60.4 155.3 -66.3 L 155.3 -66.3 L 155.3 -66.3 Q 160.9 -72.6 170.7 -72.6 L 170.7 -72.6 L 170.7 -72.6 Q 176.8 -72.6 179.8 -70.1 L 179.8 -70.1 L 179.8 -70.1 Q 182.1 -68.1 182.1 -65 L 182.1 -65 L 182.1 -65 Q 182.1 -53.7 162.6 -53.7 L 162.6 -53.7 L 162.6 -53.7 Q 162.4 -52.1 162.4 -50.7 L 162.4 -50.7 L 162.4 -50.7 Q 162.4 -47.7 163.7 -46.6 L 163.7 -46.6 L 163.7 -46.6 Q 165 -45.5 167.4 -45.5 L 167.4 -45.5 L 167.4 -45.5 Q 169.8 -45.5 172.4 -46.6 L 172.4 -46.6 L 172.4 -46.6 Q 175 -47.7 176.1 -49.5 Z M 163.1 -56.5 L 163.1 -56.5 L 163.1 -56.5 Q 167.6 -56.5 170.2 -59.3 L 170.2 -59.3 L 170.2 -59.3 Q 172.8 -62 172.8 -66.3 L 172.8 -66.3 L 172.8 -66.3 Q 172.8 -67.8 172.3 -68.6 L 172.3 -68.6 L 172.3 -68.6 Q 171.8 -69.4 170.7 -69.4 L 170.7 -69.4 L 170.7 -69.4 Q 169.6 -69.4 168.7 -68.9 L 168.7 -68.9 L 168.7 -68.9 Q 167.7 -68.5 166.8 -67.1 L 166.8 -67.1 L 166.8 -67.1 Q 164.4 -63.9 163.1 -56.5 Z M 203.4 -61.2 L 203.4 -61.2 L 203.4 -61.2 Q 204.3 -63.5 204.3 -65.6 L 204.3 -65.6 L 204.3 -65.6 Q 204.3 -69.4 201.2 -69.4 L 201.2 -69.4 L 201.2 -69.4 Q 199.6 -69.4 198.3 -67.9 L 198.3 -67.9 L 198.3 -67.9 Q 197 -66.5 197 -64.7 L 197 -64.7 L 197 -64.7 Q 197 -63.4 198 -62.4 L 198 -62.4 L 198 -62.4 Q 199.5 -61 203.2 -58.7 L 203.2 -58.7 L 203.2 -58.7 Q 207 -56.4 208.5 -54.5 L 208.5 -54.5 L 208.5 -54.5 Q 209.9 -52.6 209.9 -50 L 209.9 -50 L 209.9 -50 Q 209.9 -47.4 208.7 -45 L 208.7 -45 L 208.7 -45 Q 207.4 -42.7 205.2 -41 L 205.2 -41 L 205.2 -41 Q 200.4 -37.4 192.7 -37.4 L 192.7 -37.4 L 192.7 -37.4 Q 188.5 -37.4 185.3 -39.6 L 185.3 -39.6 L 185.3 -39.6 Q 182.1 -41.7 182.1 -44.2 L 182.1 -44.2 L 182.1 -44.2 Q 182.1 -46.7 184 -48.2 L 184 -48.2 L 184 -48.2 Q 185.8 -49.6 188.5 -49.6 L 188.5 -49.6 L 188.5 -49.6 Q 191.2 -49.6 192.8 -48.6 L 192.8 -48.6 L 192.8 -48.6 Q 192 -46.5 192 -45.1 L 192 -45.1 L 192 -45.1 Q 192 -40.9 195.6 -40.9 L 195.6 -40.9 L 195.6 -40.9 Q 197.1 -40.9 198.1 -41.8 L 198.1 -41.8 L 198.1 -41.8 Q 199.2 -42.8 199.2 -44.5 L 199.2 -44.5 L 199.2 -44.5 Q 199.2 -47.7 193.6 -51.2 L 193.6 -51.2 L 193.6 -51.2 Q 189.2 -54.1 188.1 -55.3 L 188.1 -55.3 L 188.1 -55.3 Q 186.4 -57.3 186.4 -59.9 L 186.4 -59.9 L 186.4 -59.9 Q 186.4 -62.4 187.6 -64.9 L 187.6 -64.9 L 187.6 -64.9 Q 188.8 -67.3 191.1 -69 L 191.1 -69 L 191.1 -69 Q 195.8 -72.6 203.9 -72.6 L 203.9 -72.6 L 203.9 -72.6 Q 208 -72.6 210.5 -71 L 210.5 -71 L 210.5 -71 Q 213 -69.3 213 -66.5 L 213 -66.5 L 213 -66.5 Q 213 -63.7 211.3 -62.1 L 211.3 -62.1 L 211.3 -62.1 Q 209.6 -60.5 206.5 -60.5 L 206.5 -60.5 L 206.5 -60.5 Q 204.4 -60.5 203.4 -61.2 Z M 254.4 -59.3 L 267.4 -60.5 L 267.4 -60.5 Q 262.8 -50.4 262.8 -38.6 L 262.8 -38.6 L 262.8 -38.6 Q 261 -37.4 258.5 -37.4 L 258.5 -37.4 L 258.5 -37.4 Q 256 -37.4 254.4 -38.6 L 254.4 -38.6 L 254.4 -38.6 Q 252.8 -39.8 252.5 -41 L 252.5 -41 L 252.5 -41 Q 250.9 -39.3 248.3 -38.4 L 248.3 -38.4 L 248.3 -38.4 Q 245.7 -37.4 242.9 -37.4 L 242.9 -37.4 L 242.9 -37.4 Q 240.2 -37.4 237.8 -38.3 L 237.8 -38.3 L 237.8 -38.3 Q 235.4 -39.2 233.5 -41.2 L 233.5 -41.2 L 233.5 -41.2 Q 229.4 -45.6 229.4 -53.8 L 229.4 -53.8 L 229.4 -53.8 Q 229.4 -66.6 236.3 -74.3 L 236.3 -74.3 L 236.3 -74.3 Q 243.3 -82.2 255.8 -82.2 L 255.8 -82.2 L 255.8 -82.2 Q 264.4 -82.2 267.5 -77.7 L 267.5 -77.7 L 267.5 -77.7 Q 268.5 -76.3 268.5 -74.6 L 268.5 -74.6 L 268.5 -74.6 Q 268.5 -72.9 267.7 -71.5 L 267.7 -71.5 L 267.7 -71.5 Q 267 -70.1 265.8 -68.9 L 265.8 -68.9 L 265.8 -68.9 Q 263.1 -66.4 259.7 -66.4 L 259.7 -66.4 L 259.7 -66.4 Q 258.4 -66.4 257.1 -66.8 L 257.1 -66.8 L 257.1 -66.8 Q 257.3 -68.7 257.3 -71 L 257.3 -71 L 257.3 -71 Q 257.3 -73.2 257.2 -74.2 L 257.2 -74.2 L 257.2 -74.2 Q 257 -75.2 256.6 -76.1 L 256.6 -76.1 L 256.6 -76.1 Q 255.8 -77.8 254 -77.8 L 254 -77.8 L 254 -77.8 Q 252.1 -77.8 250.1 -75.9 L 250.1 -75.9 L 250.1 -75.9 Q 248.1 -73.9 246.5 -70.7 L 246.5 -70.7 L 246.5 -70.7 Q 243 -63.5 243 -54.9 L 243 -54.9 L 243 -54.9 Q 243 -50.9 244.5 -48.1 L 244.5 -48.1 L 244.5 -48.1 Q 246.2 -45 249.1 -45 L 249.1 -45 L 249.1 -45 Q 250.2 -45 251.1 -45.6 L 251.1 -45.6 L 251.1 -45.6 Q 252 -46.1 252.4 -46.4 L 252.4 -46.4 L 254.4 -59.3 Z M 273.3 -40.6 L 273.3 -40.6 L 273.3 -40.6 Q 271.8 -42.3 271.1 -44.9 L 271.1 -44.9 L 271.1 -44.9 Q 270.4 -47.5 270.4 -51.8 L 270.4 -51.8 L 270.4 -51.8 Q 270.4 -56.1 271.9 -60 L 271.9 -60 L 271.9 -60 Q 273.4 -63.9 276.1 -66.7 L 276.1 -66.7 L 276.1 -66.7 Q 281.6 -72.6 290.7 -72.6 L 290.7 -72.6 L 290.7 -72.6 Q 293.9 -72.6 296.3 -71.5 L 296.3 -71.5 L 307.2 -72.6 L 302.5 -47.7 L 302.5 -47.7 Q 302.3 -46.9 302.3 -45.5 L 302.3 -45.5 L 302.3 -45.5 Q 302.3 -44.1 303.2 -43.2 L 303.2 -43.2 L 303.2 -43.2 Q 304 -42.3 305.3 -42.2 L 305.3 -42.2 L 305.3 -42.2 Q 304.7 -40 302.4 -38.7 L 302.4 -38.7 L 302.4 -38.7 Q 300 -37.4 297.4 -37.4 L 297.4 -37.4 L 297.4 -37.4 Q 294.8 -37.4 293 -38.4 L 293 -38.4 L 293 -38.4 Q 291.2 -39.4 290.7 -41.1 L 290.7 -41.1 L 290.7 -41.1 Q 289.7 -39.5 287.5 -38.4 L 287.5 -38.4 L 287.5 -38.4 Q 285.4 -37.4 282.4 -37.4 L 282.4 -37.4 L 282.4 -37.4 Q 279.5 -37.4 277.2 -38.2 L 277.2 -38.2 L 277.2 -38.2 Q 274.8 -39 273.3 -40.6 Z M 286.8 -66.6 L 286.8 -66.6 L 286.8 -66.6 Q 286.1 -65.5 285.4 -63.5 L 285.4 -63.5 L 285.4 -63.5 Q 284.8 -61.6 283.7 -56.3 L 283.7 -56.3 L 283.7 -56.3 Q 282.7 -51.1 282.7 -47.4 L 282.7 -47.4 L 282.7 -47.4 Q 282.7 -43.7 283.2 -42.6 L 283.2 -42.6 L 283.2 -42.6 Q 283.8 -41.5 284.8 -41.5 L 284.8 -41.5 L 284.8 -41.5 Q 286.9 -41.5 288.4 -43.5 L 288.4 -43.5 L 288.4 -43.5 Q 289.9 -45.4 290.5 -48.9 L 290.5 -48.9 L 293.9 -67.6 L 293.9 -67.6 Q 292.5 -68.8 291 -68.8 L 291 -68.8 L 291 -68.8 Q 289.4 -68.8 288.5 -68.3 L 288.5 -68.3 L 288.5 -68.3 Q 287.5 -67.8 286.8 -66.6 Z M 326 -42.2 L 326 -42.2 L 326 -42.2 Q 324 -37.4 317.7 -37.4 L 317.7 -37.4 L 317.7 -37.4 Q 314.5 -37.4 312.4 -39.7 L 312.4 -39.7 L 312.4 -39.7 Q 310.8 -41.5 310.8 -43.6 L 310.8 -43.6 L 310.8 -43.6 Q 310.8 -48.4 313 -58.9 L 313 -58.9 L 317.7 -83.5 L 330.7 -84.8 L 324.5 -52.4 L 324.5 -52.4 Q 323.4 -47.7 323.4 -46 L 323.4 -46 L 323.4 -46 Q 323.4 -42.4 326 -42.2 Z M 346.7 -42.2 L 346.7 -42.2 L 346.7 -42.2 Q 344.8 -37.4 338.4 -37.4 L 338.4 -37.4 L 338.4 -37.4 Q 335.2 -37.4 333.2 -39.7 L 333.2 -39.7 L 333.2 -39.7 Q 331.5 -41.5 331.5 -43.6 L 331.5 -43.6 L 331.5 -43.6 Q 331.5 -48.4 333.7 -58.9 L 333.7 -58.9 L 338.4 -83.5 L 351.4 -84.8 L 345.2 -52.4 L 345.2 -52.4 Q 344.1 -47.7 344.1 -46 L 344.1 -46 L 344.1 -46 Q 344.1 -42.4 346.7 -42.2 Z M 378.1 -49.5 L 378.1 -49.5 L 378.1 -49.5 Q 379.7 -48.4 379.7 -46 L 379.7 -46 L 379.7 -46 Q 379.7 -43.6 378.5 -42.1 L 378.5 -42.1 L 378.5 -42.1 Q 377.3 -40.6 375.3 -39.5 L 375.3 -39.5 L 375.3 -39.5 Q 371.2 -37.4 366.8 -37.4 L 366.8 -37.4 L 366.8 -37.4 Q 362.4 -37.4 359.8 -38.4 L 359.8 -38.4 L 359.8 -38.4 Q 357.2 -39.3 355.4 -41.1 L 355.4 -41.1 L 355.4 -41.1 Q 352 -44.5 352 -50.7 L 352 -50.7 L 352 -50.7 Q 352 -60.4 357.3 -66.3 L 357.3 -66.3 L 357.3 -66.3 Q 362.9 -72.6 372.7 -72.6 L 372.7 -72.6 L 372.7 -72.6 Q 378.8 -72.6 381.8 -70.1 L 381.8 -70.1 L 381.8 -70.1 Q 384 -68.1 384 -65 L 384 -65 L 384 -65 Q 384 -53.7 364.6 -53.7 L 364.6 -53.7 L 364.6 -53.7 Q 364.3 -52.1 364.3 -50.7 L 364.3 -50.7 L 364.3 -50.7 Q 364.3 -47.7 365.6 -46.6 L 365.6 -46.6 L 365.6 -46.6 Q 367 -45.5 369.4 -45.5 L 369.4 -45.5 L 369.4 -45.5 Q 371.8 -45.5 374.4 -46.6 L 374.4 -46.6 L 374.4 -46.6 Q 377 -47.7 378.1 -49.5 Z M 365 -56.5 L 365 -56.5 L 365 -56.5 Q 369.6 -56.5 372.2 -59.3 L 372.2 -59.3 L 372.2 -59.3 Q 374.8 -62 374.8 -66.3 L 374.8 -66.3 L 374.8 -66.3 Q 374.8 -67.8 374.3 -68.6 L 374.3 -68.6 L 374.3 -68.6 Q 373.7 -69.4 372.7 -69.4 L 372.7 -69.4 L 372.7 -69.4 Q 371.6 -69.4 370.6 -68.9 L 370.6 -68.9 L 370.6 -68.9 Q 369.7 -68.5 368.8 -67.1 L 368.8 -67.1 L 368.8 -67.1 Q 366.4 -63.9 365 -56.5 Z M 406.3 -56.7 L 406.3 -56.7 L 406.3 -56.7 Q 408.6 -60.8 408.6 -64.9 L 408.6 -64.9 L 408.6 -64.9 Q 408.6 -67.7 406.6 -67.7 L 406.6 -67.7 L 406.6 -67.7 Q 405 -67.7 403.4 -65.1 L 403.4 -65.1 L 403.4 -65.1 Q 401.8 -62.4 401.3 -59.1 L 401.3 -59.1 L 397.9 -38.7 L 384.7 -37.4 L 391.2 -71.3 L 401.8 -72.6 L 400.6 -66.2 L 400.6 -66.2 Q 403.8 -72.6 410.8 -72.6 L 410.8 -72.6 L 410.8 -72.6 Q 414.5 -72.6 416.5 -70.7 L 416.5 -70.7 L 416.5 -70.7 Q 418.5 -68.8 418.5 -64.8 L 418.5 -64.8 L 418.5 -64.8 Q 418.5 -60.9 416 -58.4 L 416 -58.4 L 416 -58.4 Q 413.4 -55.9 408.9 -55.9 L 408.9 -55.9 L 408.9 -55.9 Q 407 -55.9 406.3 -56.7 Z M 439.9 -45.9 L 439.9 -45.9 L 439.9 -45.9 Q 436.6 -42.5 430.5 -42.5 L 430.5 -42.5 L 430.5 -42.5 Q 422.9 -42.5 421.3 -48 L 421.3 -48 L 421.3 -48 Q 420.8 -49.7 420.8 -51.6 L 420.8 -51.6 L 420.8 -51.6 Q 420.8 -53.4 421.2 -55.3 L 421.2 -55.3 L 424.2 -71.3 L 437.2 -72.6 L 433.6 -54 L 433.6 -54 Q 433.5 -53.2 433.3 -52.3 L 433.3 -52.3 L 433.3 -52.3 Q 433.1 -51.4 433.1 -50.4 L 433.1 -50.4 L 433.1 -50.4 Q 433.1 -49.5 433.5 -48.9 L 433.5 -48.9 L 433.5 -48.9 Q 433.8 -48.3 434.2 -47.9 L 434.2 -47.9 L 434.2 -47.9 Q 435 -47.4 436.4 -47.4 L 436.4 -47.4 L 436.4 -47.4 Q 437.7 -47.4 438.9 -49.1 L 438.9 -49.1 L 438.9 -49.1 Q 440.1 -50.7 440.7 -53.6 L 440.7 -53.6 L 444.2 -71.3 L 456.8 -72.6 L 452 -47.5 L 452 -47.5 Q 449.6 -35.2 444.8 -30.3 L 444.8 -30.3 L 444.8 -30.3 Q 442.3 -27.8 439.1 -26.8 L 439.1 -26.8 L 439.1 -26.8 Q 435.8 -25.8 431.7 -25.8 L 431.7 -25.8 L 431.7 -25.8 Q 424.9 -25.8 421.1 -28 L 421.1 -28 L 421.1 -28 Q 417.3 -30.1 417.3 -33.6 L 417.3 -33.6 L 417.3 -33.6 Q 417.3 -36.2 419.2 -37.7 L 419.2 -37.7 L 419.2 -37.7 Q 421.2 -39.2 424.3 -39.2 L 424.3 -39.2 L 424.3 -39.2 Q 427 -39.2 429 -38.1 L 429 -38.1 L 429 -38.1 Q 430.3 -37.4 430.8 -36.5 L 430.8 -36.5 L 430.8 -36.5 Q 429.4 -35.2 429.4 -33.1 L 429.4 -33.1 L 429.4 -33.1 Q 429.4 -30.3 431.9 -30.3 L 431.9 -30.3 L 431.9 -30.3 Q 436.1 -30.3 438.6 -40 L 438.6 -40 L 438.6 -40 Q 439.3 -42.9 439.9 -45.9 Z" fill="url(#editing-gradient-gradient)"></path></g></g><style>text {
  font-size: 64px;
  font-family: Arial Black;
  dominant-baseline: central;
  text-anchor: middle;
}</style></svg>